# xmcd
#
# Track frame offsets:
#	150
#	22566
#	43156
#	57596
#	76731
#	93477
#	109534
#	126578
#	143536
#	164105
#	185210
#	205592
#
# Disc length: 2895 seconds
#
# Revision: 0
# Processed by: cddbd v1.4PL0 Copyright (c) Steve Scherf et al.
# Submitted via: audiograbber 1.82.01
#
DISCID=a20b4d0c
DTITLE=Manu Katche - It's About Time
DYEAR=1992
DGENRE=Rock
TTITLE0=Cry Of Passion
TTITLE1=Change
TTITLE2=Warm Doorway
TTITLE3=Who I Am
TTITLE4=Go Getter
TTITLE5=Lost In You
TTITLE6=Silence
TTITLE7=My Inner Heart
TTITLE8=No Country
TTITLE9=She Is
TTITLE10=25th Of July
TTITLE11=Tell Me Why
EXTD=
EXTT0=
EXTT1=
EXTT2=
EXTT3=
EXTT4=
EXTT5=Manu Katche
EXTT6=
EXTT7=
EXTT8=
EXTT9=
EXTT10=
EXTT11=
PLAYORDER=
